<svg id="Layer_1" data-name="Layer 1" xmlns="http://www.w3.org/2000/svg" viewBox="0 0 500 500" width="500" height="500" class="illustration"><defs><style>.cls-1{fill:#e2e2e2;}.cls-2{fill:#24285b;}.cls-3{fill:#c3c7c9;}.cls-4{fill:#ffd44d;}.cls-5{fill:#f0457d;}.cls-6{fill:none;stroke:#ffd44d;stroke-miterlimit:10;stroke-width:7px;}</style></defs><title>Strategy</title><path class="cls-1" d="M133.43,79.88c0-8.43-30-15.27-21.55-15.27h280.2a15.27,15.27,0,0,1,15.26,15.27v335.5H133.43Z"></path><path class="cls-2" d="M204.66,161.87H198a3.5,3.5,0,1,1,0-7h6.63a3.5,3.5,0,0,1,0,7Z"></path><path class="cls-2" d="M226.78,161.87a3.5,3.5,0,0,1-.07-7l103.17-.2H330a3.5,3.5,0,0,1,.07,7l-103.17.2Z"></path><path class="cls-2" d="M331.42,190.73H199.49a3.5,3.5,0,0,1,0-7H331.42a3.5,3.5,0,0,1,0,7Z"></path><path class="cls-2" d="M331.42,219.59H199.49a3.5,3.5,0,0,1,0-7H331.42a3.5,3.5,0,0,1,0,7Z"></path><path class="cls-3" d="M111.88,64.61h0a21.55,21.55,0,0,1,21.55,21.55V120.6a0,0,0,0,1,0,0H90.33a0,0,0,0,1,0,0V86.17A21.55,21.55,0,0,1,111.88,64.61Z"></path><path class="cls-4" d="M364.39,434.71l-18.62-20.63a2,2,0,0,0-3,0l-18.62,20.63a2,2,0,0,1-3.54-1.36V354a2,2,0,0,1,2-2H365.9a2,2,0,0,1,2,2v79.36A2,2,0,0,1,364.39,434.71Z"></path><circle class="cls-5" cx="344.26" cy="348.23" r="52.61"></circle><circle class="cls-6" cx="344.26" cy="348.23" r="22.67"></circle></svg>