<svg xmlns="http://www.w3.org/2000/svg" viewBox="0 0 500 500" width="500" height="500" class="illustration"><defs><style>.cls-1,.cls-3{isolation:isolate;}.cls-2{fill:#0099f5;}.cls-3{opacity:0.09;}.cls-4{fill:#24285b;}.cls-5{fill:#ffbeb3;}.cls-6{fill:#f9a498;}.cls-7{fill:#efe8e4;}.cls-11,.cls-7{mix-blend-mode:multiply;}.cls-8{fill:#9c5631;}.cls-9{opacity:0.5;mix-blend-mode:soft-light;}.cls-10{fill:#fff;}.cls-11{opacity:0.1;}.cls-12{fill:#afaaa8;}.cls-13{fill:none;stroke:#24285b;stroke-linecap:round;stroke-linejoin:round;stroke-width:9px;}.cls-14{fill:#f0457d;}</style></defs><title>Contact Us</title><g class="cls-1"><g id="Layer_1" data-name="Layer 1"><path class="cls-2" d="M399.66,413.81v15.55H98.4C91,358.31,157.29,315,222.16,315.14c33.5.36,80.54-3.4,111.35,11.51C368.9,341.07,400,373.9,399.66,413.81Z"></path><path class="cls-3" d="M399.66,413.81c.3-39.91-30.76-72.74-66.16-87.16-30.8-14.91-77.84-11.15-111.34-11.51a147.79,147.79,0,0,0-58.68,12,146.78,146.78,0,0,1,14.82-.75c33.5.37,80.53-3.39,111.34,11.52,35.4,14.41,66.45,47.24,66.16,87.16v4.29h43.86Z"></path><path class="cls-3" d="M245.92,366.15,215.85,384.4a3.62,3.62,0,0,1-5-1.27l-32.51-55.78a3.61,3.61,0,0,1,1.45-5l29.92-15.67a3.61,3.61,0,0,1,4.75,1.31l32.66,53.21A3.61,3.61,0,0,1,245.92,366.15Z"></path><path class="cls-3" d="M252.16,366.15l30.07,18.25a3.62,3.62,0,0,0,5-1.27l32.51-55.78a3.61,3.61,0,0,0-1.45-5l-29.92-15.67a3.61,3.61,0,0,0-4.75,1.31L251,361.18A3.61,3.61,0,0,0,252.16,366.15Z"></path><path class="cls-4" d="M277,362.29,249,352h0L221.1,362.29l19.33,34-7.25,33h31.71l-7.25-33Z"></path><path class="cls-5" d="M249,357.27A33.28,33.28,0,0,1,215.76,324V235.51c.74-43.71,65.81-43.76,66.56,0V324A33.3,33.3,0,0,1,249,357.27Z"></path><path class="cls-6" d="M280.71,334.21c-9.45,30.57-54.19,30.21-63.36,0C230.81,353.54,266.69,354.22,280.71,334.21Z"></path><path class="cls-2" d="M246.2,359l-27.56,16.72a3.32,3.32,0,0,1-4.58-1.17l-29.78-51.11a3.3,3.3,0,0,1,1.32-4.59L213,304.47a3.33,3.33,0,0,1,4.36,1.2l29.92,48.76A3.31,3.31,0,0,1,246.2,359Z"></path><path class="cls-2" d="M251.91,359l27.56,16.72a3.3,3.3,0,0,0,4.57-1.17l29.79-51.11a3.29,3.29,0,0,0-1.33-4.59l-27.42-14.37a3.31,3.31,0,0,0-4.35,1.2l-29.92,48.76A3.31,3.31,0,0,0,251.91,359Z"></path><path class="cls-5" d="M182.8,202.82c-1.57-7.89-9.08-15.23-19.38-13s-10.33,11.86-8.76,19.75c.09.41,5.15,21.74,8.13,26.22s7.29,13,14.53,10.6c4.79-1.61,7.61-10.14,8.75-16.29S182.8,202.82,182.8,202.82Z"></path><path class="cls-5" d="M313.87,202.5c1.57-7.89,9.07-15.23,19.37-13s11.31,12.14,9.75,20c-.09.42-5.56,20.16-8.13,26.24-2.11,5-7.86,13.81-15.34,10.73-4.67-1.93-7.79-10.56-8.92-16.72S313.87,202.5,313.87,202.5Z"></path><path class="cls-5" d="M323.93,143.48c0-34.22-21.21-68.56-77.34-68.56s-76.51,37.58-76.51,71.8c0,1.8-.17,94.86,10.73,116.23s40.9,43.17,67.69,43.27c29.3.11,55.63-18.71,67.93-43.27S323.93,143.48,323.93,143.48Z"></path><path class="cls-6" d="M191.68,151.19l1.48,1.05c1.53,1.45-6.17,18.63-3.93,18.71,11.12,2.34,24.46-21.74,35.32-18.36,19.13,5.95,55.1,54.15,90.41,53.21,9.28-8.94,9-62.32,9-62.32,0-34.22-21.21-68.56-77.34-68.56-46.5,0-68.42,25.8-74.58,54.11C180.69,132.74,188,139.92,191.68,151.19Z"></path><path class="cls-7" d="M313.9,267.47c.12-.2.27-.37.38-.57-.63.46-1.29.87-1.93,1.32C312.88,268,313.38,267.71,313.9,267.47Z"></path><path class="cls-6" d="M261.22,299c-26.79-.1-56.8-21.91-67.69-43.28S182.8,141.3,182.8,139.5c0-15.33,4.27-31.23,13.85-44.21a73.2,73.2,0,0,1,3.52-8.21c-21.41,13.84-30.09,37.41-30.09,59.64,0,1.8-.17,94.86,10.73,116.23s40.9,43.17,67.69,43.27c15.2.06,29.5-5.09,41.55-13.39A70.69,70.69,0,0,1,261.22,299Z"></path><path class="cls-8" d="M336.48,135.32c-6.91-37.67-37.67-65-88-64.68-50.16.32-83.13,31.06-89.72,65.93-2.83,14.94-5,43.33-3.85,60.25,8.49-7,12-7.89,16.11-6.25,2.81,30.77,9.51,30.31,9.51,30.31s.61-20.9,2-34.71,24-16.31,35.27-40.19c35.8-1.56,58.4,44.28,97.65,46.79-3.89,22.69,4.71,31.72,4.71,31.72s.91-18.75,4.08-27.63c2.76-7.75,11-7.75,15.06-4.39C341.25,178.38,340.3,156.13,336.48,135.32Z"></path><g class="cls-9"><path class="cls-10" d="M336.48,135.32c-6.91-37.67-37.67-65-88-64.68-44,.28-74.8,24-86.13,53.38,14.11-24.16,42.41-42.31,80.86-42.55,50.31-.31,81.07,27,88,64.68a227.72,227.72,0,0,1,3.75,44.4,9.7,9.7,0,0,1,4.34,1.92C341.25,178.38,340.3,156.13,336.48,135.32Z"></path></g><g class="cls-11"><path class="cls-12" d="M217.8,128.08c-11.3,23.88-47.72,46.38-62.87,50.84-.05-.77-.06-1.68-.1-2.5a200.93,200.93,0,0,0,.1,20.4c8.49-7,12-7.89,16.11-6.25,2.81,30.77,9.51,30.31,9.51,30.31s.61-20.9,2-34.71,24-16.31,35.27-40.19c35.64-1.55,58.22,43.86,97.16,46.73C286.24,182.74,253.6,126.53,217.8,128.08Z"></path></g><path class="cls-13" d="M274.69,297.69h0a63.41,63.41,0,0,0,63.42-63.42v-17"></path><rect class="cls-14" x="247.45" y="284.39" width="47.44" height="26.61" rx="9.08"></rect><path class="cls-13" d="M154.93,178.92l-.18-19a86.65,86.65,0,0,1,85.09-87.48l10.45-.19a86.65,86.65,0,0,1,88.2,88.37l-.38,18.76"></path><rect class="cls-14" x="147.06" y="179.39" width="33.06" height="75.14" rx="7.89"></rect><rect class="cls-14" x="317.22" y="179.92" width="33.06" height="75.14" rx="7.89"></rect></g></g></svg>