<svg xmlns="http://www.w3.org/2000/svg" viewBox="0 0 100 100" width="500" height="500" class="illustration"><defs><style>.cls-1{fill:#0099f5;}.cls-1,.cls-2,.cls-3,.cls-4,.cls-6,.cls-7{stroke:#231f20;stroke-width:1.5px;}.cls-1,.cls-2,.cls-3{stroke-linejoin:bevel;}.cls-2{fill:#ffd44d;}.cls-3,.cls-6{fill:none;}.cls-4{fill:#bc175a;}.cls-4,.cls-6,.cls-7{stroke-miterlimit:10;}.cls-5{fill:#f0457d;}.cls-7{fill:#fff;}</style></defs><g id="Layer_2" data-name="Layer 2"><path class="cls-1" d="M80.48,81.75c0,.2,0,.39,0,.58H19.53c0-.19,0-.38,0-.58a30.48,30.48,0,0,1,61,0Z"></path><path class="cls-2" d="M67.08,69.69c-1.65-1.66,2.19-4.2-.16-6.47s1-5.35-1.32-6.3-9.45-.35-12.86-1.67-4.38-.34-7.87.71S40,55.43,38,55.87s-5.08,2-5.25,3.84S30.25,61,29,62.87s-3.3,3.12-3.1,5.19h0c-.09.09-4,4.14-4,9.47a18.3,18.3,0,0,0,.36,4.79H40.55c.45-1.41-.12-2.06-1.69-2.35s-2.84-4.69-4-7.37a.84.84,0,0,1,.7.4c.53.79,1.66,5.51,3.5,5.86s5.52-3.59,4.11-4-3.76-3-3.33-4.18a9.15,9.15,0,0,0,5.87,2.8c3.41.09,2.89,2.8,4.37,5.69s1.58,3.24,2.54,2.45.7-3.33,2.1-4.73,3.47-.87,4.9,1.06c.21.28.45.58.67.89,0,0,.08.83.22,1.69a4.79,4.79,0,0,0,.51,1.82h.7c-.44-.54-.5-.65-.5-1.2,0-.32,0-.8-.08-1.25,1,1.29,2.07,2.32,2.59,2.08.79-.36,2.19-2.38,1.31-3.69s-2.41-2.71.28-3S68.75,71.36,67.08,69.69ZM33.87,70.83c-1.53-1.52-4.57-.51-5.38-1.62L28,68.58c.43-.31.76-.72.72-1-.08-.84-.17-2.15,1.32-2.33s.7.7,1.84,1.49,3.85-.22,3.85,1.33A2.64,2.64,0,0,1,33.87,70.83Z"></path><polyline class="cls-3" points="80.47 82.33 61.75 82.33 61.05 82.33 40.55 82.33 22.34 82.33 19.53 82.33"></polyline><path class="cls-4" d="M46,54.26C42.88,45.75,40.84,34,40.84,29.89a12.22,12.22,0,0,1,24.44,0c0,6.75-5.47,33.9-12.22,33.9H48.3"></path><path class="cls-5" d="M60.52,29.89c0,6.75-5.47,33.9-12.22,33.9S36.08,36.64,36.08,29.89a12.22,12.22,0,0,1,24.44,0Z"></path><path class="cls-6" d="M36.12,31.05c0-.43,0-.82,0-1.16a12.22,12.22,0,0,1,24.44,0c0,6.75-5.47,33.9-12.22,33.9-4.93,0-9.18-14.52-11.11-25"></path><circle class="cls-7" cx="48.3" cy="29.95" r="7.47"></circle><line class="cls-6" x1="53.06" y1="17.67" x2="48.3" y2="17.67"></line></g></svg>