<svg xmlns="http://www.w3.org/2000/svg" viewBox="0 0 100 100" width="500" height="500" class="illustration"><g id="Layer_1" data-name="Layer 1"><rect x="27.84" y="34.7" width="54.68" height="47.23" fill="#0099f5"></rect><rect x="16.25" y="23.5" width="54.68" height="47.23" fill="#ffd44d"></rect><polygon points="25.4 60.42 63.62 60.42 52.65 45.71 44.51 53.87 36.03 40.19 25.4 60.42" fill="#f0457d"></polygon><circle cx="47.18" cy="35.5" r="4.99" fill="#fff"></circle><rect x="16.25" y="64.43" width="54.68" height="6.29" fill="#ff9515"></rect><rect x="27.74" y="75.3" width="54.68" height="6.29" fill="#0064f4"></rect></g><g id="Layer_2" data-name="Layer 2"><polyline points="75.78 34.7 82.52 34.7 82.52 81.93 27.84 81.93 27.84 70.72" fill="none" stroke="#231f20" stroke-miterlimit="10" stroke-width="1.5"></polyline><rect x="16.25" y="23.5" width="54.68" height="47.23" fill="none" stroke="#231f20" stroke-miterlimit="10" stroke-width="1.5"></rect><polygon points="25.4 60.42 63.62 60.42 52.65 45.71 44.51 53.87 36.03 40.19 25.4 60.42" fill="none" stroke="#231f20" stroke-miterlimit="10" stroke-width="1.5"></polygon><circle cx="47.23" cy="35.4" r="4.99" fill="none" stroke="#231f20" stroke-miterlimit="10" stroke-width="1.5"></circle></g></svg>