<svg id="Layer_1" data-name="Layer 1" xmlns="http://www.w3.org/2000/svg" viewBox="0 0 500 500" width="500" height="500" class="illustration"><defs><style>.cls-1{fill:#ffd44d;}.cls-2{fill:#f9bb0d;}.cls-3{fill:#f0457d;}.cls-4{fill:#24285b;}.cls-5{fill:#0099f5;}.cls-6{fill:#fff;}.cls-7{fill:#db2868;}.cls-8{fill:#0086f4;}</style></defs><title>Strategy</title><path class="cls-1" d="M119.77,307.47l19.21-.24-5.23-26.86-15.62,4.22a2.46,2.46,0,0,0-1.82,2.51l1,18A2.48,2.48,0,0,0,119.77,307.47Z"></path><path class="cls-1" d="M184.53,240.23s36.2,2.7,97.77-28.86,102.35-85.8,108.11-83.74,34.84-2.12,51.63,118.08-9.71,139-19.32,135.87S353,340.47,310.66,332.8s-101.46-2.15-101.46-2.15Z"></path><path class="cls-2" d="M198.21,290.8l10.93,40s59.08-5.51,101.45,2.15c40.1,7.26,96.06,41.67,110.09,48C374.2,291.52,252.64,287.68,198.21,290.8Z"></path><path class="cls-3" d="M130.92,272.76l5,25.5,2.22,11.42a30,30,0,0,0,33.63,24l77.77-3.35a2.47,2.47,0,0,0,2.35-2.69l-9-98.28a2.47,2.47,0,0,0-2.76-2.22l-85.6,10.5A30,30,0,0,0,130.92,272.76Z"></path><path class="cls-3" d="M155,316.49l15,45.85a2.47,2.47,0,0,0,2.62,1.69l9.21-1.06a2.48,2.48,0,0,1,2.12.8l65.17,72.63a2.47,2.47,0,0,0,3.83-.2l25.24-34.7a2.46,2.46,0,0,0-.64-3.51c-8.8-5.78-41.64-28.17-46.77-43.56-4.08-12.25-.41-17.1,2.28-18.94a2.48,2.48,0,0,0,.74-3.39l-15.5-24.45a2.45,2.45,0,0,0-2.36-1.13l-58.83,6.75A2.48,2.48,0,0,0,155,316.49Z"></path><path class="cls-4" d="M437.54,246.45c8.63,65,4,119.18-10.23,121.08s-32.84-49.24-41.47-114.21-4.06-119.19,10.22-121.08S428.9,181.48,437.54,246.45Z"></path><path class="cls-5" d="M388.69,217.89s35-9.42,39.15,35.28S399,295.1,399,295.1C392.21,271.58,388.68,245.91,388.69,217.89Z"></path><path class="cls-6" d="M371.6,161c-.18,0-.57,2.81-1.13,8s-1.34,12.62-2.06,21.86c0,4.65-.08,9.73-.12,15.17,0,2.73,0,5.56-.05,8.46,0,1.46,0,2.93,0,4.42s.2,3,.3,4.54c.47,6.12,1,12.54,1.49,19.19.13,1.67.27,3.35.4,5s.5,3.37.73,5.08q.83,5.11,1.67,10.36t1.68,10.36c.31,1.69.48,3.41.9,5.05s.81,3.29,1.21,4.91l4.62,18.7c.39,1.48.7,3,1.14,4.4l1.41,4.2c.93,2.76,1.84,5.43,2.71,8,1.76,5.15,3.4,10,4.9,14.37,3.58,8.53,6.69,15.35,8.81,20.07s3.42,7.28,3.59,7.2-.78-2.77-2.64-7.6-4.68-11.87-8-20.39c-1.39-4.4-2.91-9.21-4.55-14.37-.82-2.58-1.68-5.25-2.56-8-.44-1.38-.88-2.77-1.34-4.18s-.71-2.91-1.08-4.38c-1.41-5.94-2.9-12.16-4.44-18.61-.39-1.62-.78-3.24-1.18-4.88s-.57-3.34-.88-5q-.81-5.09-1.65-10.29c-.56-3.47-1.12-6.91-1.67-10.29-.24-1.69-.62-3.36-.74-5s-.28-3.34-.42-5c-.57-6.6-1.12-13-1.64-19-.11-1.52-.3-3-.35-4.5s0-3,0-4.4c0-2.88-.06-5.69-.09-8.4-.07-5.41-.14-10.46-.2-15.09.51-9.12.92-16.54,1.21-21.83S371.78,161,371.6,161Z"></path><polygon class="cls-7" points="160.45 333.11 164.23 344.69 234.15 333.11 233.11 331.02 160.45 333.11"></polygon><path class="cls-5" d="M195.39,62.78H66.65A14.14,14.14,0,0,0,52.52,76.92v90.25A14.13,14.13,0,0,0,66.65,181.3H97.88l11.77,18.15a1.86,1.86,0,0,0,3.08.07l13.14-18.22h69.52a14.14,14.14,0,0,0,14.14-14.13V76.92A14.14,14.14,0,0,0,195.39,62.78Z"></path><path class="cls-8" d="M58.57,172.84a14.11,14.11,0,0,1-5.17-1,14.12,14.12,0,0,0,13.33,9.45H97.88l-5.49-8.46Z"></path><path class="cls-8" d="M200.65,63.77a14.19,14.19,0,0,1,.8,4.68V158.7a14.14,14.14,0,0,1-14.14,14.14H117.79l-13.14,18.22a1.55,1.55,0,0,1-.21.23l5.29,8.16a1.86,1.86,0,0,0,3.08.07L126,181.3h69.52a14.14,14.14,0,0,0,14.14-14.13V76.92A14.13,14.13,0,0,0,200.65,63.77Z"></path><path class="cls-6" d="M142,134.71H88.4a4.5,4.5,0,1,1,0-9H142a4.5,4.5,0,0,1,0,9Z"></path><path class="cls-6" d="M174.43,114.22h-86a4.5,4.5,0,0,1,0-9h86a4.5,4.5,0,0,1,0,9Z"></path></svg>