<svg id="Layer_1" data-name="Layer 1" xmlns="http://www.w3.org/2000/svg" viewBox="0 0 500 500" width="500" height="500" class="illustration"><defs><style>.cls-1{fill:#ffd44d;}.cls-2{fill:#f9bb0d;}.cls-3{fill:#f0457d;}.cls-4{fill:#24285b;}.cls-5{fill:#0099f5;}.cls-6{fill:#fff;}.cls-7{fill:#db2868;}</style></defs><title>Mentoring &amp;amp; Training</title><path class="cls-1" d="M60.28,277.15l19.21-.23-5.22-26.87-15.63,4.23a2.47,2.47,0,0,0-1.82,2.51l1,18A2.46,2.46,0,0,0,60.28,277.15Z"></path><path class="cls-1" d="M125.05,209.92s36.2,2.7,97.76-28.86,102.36-85.8,108.11-83.75,34.85-2.12,51.63,118.08-9.71,139-19.31,135.87-69.69-41.11-112.07-48.77-101.45-2.15-101.45-2.15Z"></path><path class="cls-2" d="M138.73,260.49l10.92,40s59.09-5.51,101.46,2.15c40.09,7.25,96.05,41.67,110.08,48C314.71,261.21,193.16,257.37,138.73,260.49Z"></path><path class="cls-3" d="M71.44,242.45l5,25.5,2.22,11.42a30,30,0,0,0,33.62,24L190,300a2.47,2.47,0,0,0,2.35-2.69l-9-98.28a2.47,2.47,0,0,0-2.76-2.22L95,207.3A30,30,0,0,0,71.44,242.45Z"></path><path class="cls-3" d="M95.55,286.18l15,45.85a2.47,2.47,0,0,0,2.63,1.68l9.21-1a2.43,2.43,0,0,1,2.12.8l65.16,72.62a2.46,2.46,0,0,0,3.83-.19l25.24-34.7a2.46,2.46,0,0,0-.63-3.51c-8.8-5.79-41.64-28.17-46.78-43.56-4.08-12.25-.4-17.1,2.29-18.94a2.49,2.49,0,0,0,.74-3.39l-15.5-24.45a2.47,2.47,0,0,0-2.37-1.13L97.61,283A2.47,2.47,0,0,0,95.55,286.18Z"></path><path class="cls-4" d="M378.05,216.14c8.63,65,4.06,119.18-10.22,121.08S335,288,326.35,223s-4.05-119.19,10.22-121.08S369.42,151.16,378.05,216.14Z"></path><path class="cls-5" d="M329.2,187.58s35-9.42,39.16,35.28-28.86,41.93-28.86,41.93C332.73,241.27,329.2,215.6,329.2,187.58Z"></path><path class="cls-6" d="M312.12,130.65c-.18,0-.58,2.81-1.14,8s-1.34,12.61-2.05,21.86c0,4.65-.08,9.73-.13,15.17q0,4.1,0,8.46c0,1.45,0,2.93,0,4.42s.21,3,.31,4.53c.47,6.13,1,12.55,1.49,19.2.13,1.67.26,3.35.4,5s.49,3.37.73,5.08q.82,5.1,1.67,10.36T315,243.09c.31,1.69.48,3.4.9,5s.8,3.29,1.2,4.91c1.61,6.48,3.15,12.73,4.63,18.7.39,1.48.7,3,1.14,4.4s.94,2.82,1.41,4.2c.93,2.75,1.83,5.43,2.71,8,1.75,5.16,3.39,10,4.89,14.38,3.59,8.53,6.7,15.34,8.82,20.06s3.42,7.28,3.58,7.21-.77-2.77-2.63-7.6l-8-20.39c-1.4-4.4-2.92-9.21-4.55-14.37q-1.24-3.87-2.56-8l-1.34-4.17c-.42-1.42-.71-2.91-1.08-4.39-1.42-5.93-2.91-12.15-4.45-18.61q-.58-2.42-1.17-4.87c-.41-1.64-.58-3.34-.88-5-.54-3.38-1.1-6.81-1.65-10.29s-1.12-6.9-1.67-10.28c-.24-1.69-.63-3.36-.75-5s-.28-3.35-.42-5c-.56-6.6-1.11-13-1.63-19.06-.12-1.52-.31-3-.36-4.5s0-2.94,0-4.39c0-2.88-.06-5.69-.08-8.4-.08-5.42-.14-10.47-.21-15.09.51-9.12.92-16.55,1.22-21.83S312.3,130.67,312.12,130.65Z"></path><polygon class="cls-7" points="100.97 302.8 104.75 314.38 174.67 302.8 173.62 300.7 100.97 302.8"></polygon><rect class="cls-2" x="417.87" y="194.37" width="11.87" height="36.82" rx="3" transform="translate(599 -227.88) rotate(85.02)"></rect><path class="cls-2" d="M402.8,253.87l4.24-4.4a2.07,2.07,0,0,1,3.2.23l22,27.87a2.91,2.91,0,0,1-.12,3.68l-4.25,4.4a2.06,2.06,0,0,1-3.19-.23l-22-27.88A2.87,2.87,0,0,1,402.8,253.87Z"></path><path class="cls-2" d="M396,175.93l4.94,3.61a2.07,2.07,0,0,0,3.11-.78L420.9,147.5a2.86,2.86,0,0,0-.75-3.6l-4.94-3.6a2.07,2.07,0,0,0-3.11.77l-16.85,31.27A2.87,2.87,0,0,0,396,175.93Z"></path></svg>