<svg xmlns="http://www.w3.org/2000/svg" viewBox="0 0 100 100" width="500" height="500" class="illustration"><defs><style>.cls-1,.cls-7{fill:#0064f4;}.cls-2{fill:none;}.cls-2,.cls-3,.cls-4,.cls-5,.cls-6,.cls-7{stroke:#231f20;stroke-miterlimit:10;stroke-width:1.5px;}.cls-3,.cls-8{fill:#0099f5;}.cls-4{fill:#ffd44d;}.cls-5{fill:#bc175a;}.cls-6{fill:#f0457d;}</style></defs><g id="Layer_2" data-name="Layer 2"><rect class="cls-1" x="42.83" y="10.05" width="41.86" height="39.04" rx="5.1"></rect><path class="cls-2" d="M84.69,25V44a5.09,5.09,0,0,1-5.09,5.09H47.93A5.09,5.09,0,0,1,42.83,44V15.15a5.1,5.1,0,0,1,5.1-5.1H79.6a5.09,5.09,0,0,1,5.09,5.1"></path><rect class="cls-3" x="38.44" y="10.05" width="41.86" height="39.04" rx="5.1"></rect><rect class="cls-4" x="44.58" y="20.38" width="29.57" height="4.64" rx="2.32"></rect><rect class="cls-5" x="30.57" y="29.57" width="41.86" height="39.04" rx="5.1"></rect><rect class="cls-6" x="26.17" y="29.57" width="41.86" height="39.04" rx="5.1"></rect><rect class="cls-5" x="32.32" y="39.9" width="29.57" height="4.64" rx="2.32"></rect><rect class="cls-7" x="19.7" y="50.92" width="41.86" height="39.04" rx="5.1"></rect><rect class="cls-8" x="15.31" y="50.92" width="41.86" height="39.04" rx="5.1"></rect><path class="cls-2" d="M15.31,67.63V56a5.09,5.09,0,0,1,5.09-5.09H52.07A5.09,5.09,0,0,1,57.17,56V84.85a5.1,5.1,0,0,1-5.1,5.1H20.4a5.09,5.09,0,0,1-5.09-5.1V76.58"></path><rect class="cls-4" x="21.45" y="61.25" width="29.57" height="4.64" rx="2.32"></rect></g></svg>