<svg width="1366" height="731" viewBox="0 0 1366 731" fill="none" xmlns="http://www.w3.org/2000/svg">
<mask id="mask0_31_1958" style="mask-type:alpha" maskUnits="userSpaceOnUse" x="567" y="0" width="799" height="698">
<path fill-rule="evenodd" clip-rule="evenodd" d="M567 698V0H1366V698H567Z" fill="white"/>
</mask>
<g mask="url(#mask0_31_1958)">
<path fill-rule="evenodd" clip-rule="evenodd" d="M673.38 280.094C643.348 266.09 630.355 230.391 644.359 200.359L960.477 -477.559C974.482 -507.592 1010.18 -520.585 1040.21 -506.581L1748.95 -176.093C1778.98 -162.089 1791.97 -126.39 1777.97 -96.3578L1461.85 581.56C1447.84 611.593 1412.15 624.586 1382.11 610.582L673.38 280.094Z" fill="#009846"/>
</g>
<path fill-rule="evenodd" clip-rule="evenodd" d="M733.037 546.814C727.328 548.892 721.016 545.948 718.938 540.24L696.365 478.22C694.287 472.511 697.231 466.199 702.939 464.121L764.959 441.548C770.668 439.47 776.98 442.413 779.058 448.122L801.631 510.142C803.709 515.851 800.766 522.163 795.057 524.241L733.037 546.814Z" fill="#284694"/>
<path fill-rule="evenodd" clip-rule="evenodd" d="M1271.71 665.604C1266 667.682 1259.69 664.738 1257.61 659.029L1253.51 647.753C1251.43 642.044 1254.37 635.732 1260.08 633.654L1271.36 629.55C1277.07 627.472 1283.38 630.416 1285.46 636.124L1289.56 647.401C1291.64 653.109 1288.7 659.422 1282.99 661.5L1271.71 665.604Z" fill="#AED4B3"/>
<path fill-rule="evenodd" clip-rule="evenodd" d="M679.034 726.294C673.326 728.372 667.013 725.428 664.936 719.72L652.965 686.83C650.887 681.122 653.83 674.809 659.539 672.731L692.428 660.761C698.137 658.683 704.45 661.626 706.527 667.335L718.498 700.224C720.576 705.933 717.632 712.245 711.924 714.323L679.034 726.294Z" fill="#98C1D9"/>
<path fill-rule="evenodd" clip-rule="evenodd" d="M108 603.64C108 602.734 108.734 602 109.64 602C110.546 602 111.28 602.734 111.28 603.64C111.28 604.546 110.546 605.28 109.64 605.28C108.734 605.28 108 604.546 108 603.64Z" fill="#024547"/>
<path fill-rule="evenodd" clip-rule="evenodd" d="M131.279 603.64C131.279 602.734 132.013 602 132.919 602C133.824 602 134.559 602.734 134.559 603.64C134.559 604.546 133.824 605.28 132.919 605.28C132.013 605.28 131.279 604.546 131.279 603.64Z" fill="#024547"/>
<path fill-rule="evenodd" clip-rule="evenodd" d="M154.561 603.64C154.561 602.734 155.295 602 156.201 602C157.107 602 157.841 602.734 157.841 603.64C157.841 604.546 157.107 605.28 156.201 605.28C155.295 605.28 154.561 604.546 154.561 603.64Z" fill="#024547"/>
<path fill-rule="evenodd" clip-rule="evenodd" d="M177.84 603.64C177.84 602.734 178.574 602 179.48 602C180.385 602 181.12 602.734 181.12 603.64C181.12 604.546 180.385 605.28 179.48 605.28C178.574 605.28 177.84 604.546 177.84 603.64Z" fill="#024547"/>
<path fill-rule="evenodd" clip-rule="evenodd" d="M201.118 603.64C201.118 602.734 201.853 602 202.758 602C203.664 602 204.398 602.734 204.398 603.64C204.398 604.546 203.664 605.28 202.758 605.28C201.853 605.28 201.118 604.546 201.118 603.64Z" fill="#024547"/>
<path fill-rule="evenodd" clip-rule="evenodd" d="M224.401 603.64C224.401 602.734 225.135 602 226.041 602C226.947 602 227.681 602.734 227.681 603.64C227.681 604.546 226.947 605.28 226.041 605.28C225.135 605.28 224.401 604.546 224.401 603.64Z" fill="#024547"/>
<path fill-rule="evenodd" clip-rule="evenodd" d="M247.679 603.64C247.679 602.734 248.414 602 249.319 602C250.225 602 250.959 602.734 250.959 603.64C250.959 604.546 250.225 605.28 249.319 605.28C248.414 605.28 247.679 604.546 247.679 603.64Z" fill="#024547"/>
<path fill-rule="evenodd" clip-rule="evenodd" d="M270.962 603.64C270.962 602.734 271.696 602 272.602 602C273.508 602 274.242 602.734 274.242 603.64C274.242 604.546 273.508 605.28 272.602 605.28C271.696 605.28 270.962 604.546 270.962 603.64Z" fill="#024547"/>
<path fill-rule="evenodd" clip-rule="evenodd" d="M294.24 603.64C294.24 602.734 294.975 602 295.88 602C296.786 602 297.52 602.734 297.52 603.64C297.52 604.546 296.786 605.28 295.88 605.28C294.975 605.28 294.24 604.546 294.24 603.64Z" fill="#024547"/>
<path fill-rule="evenodd" clip-rule="evenodd" d="M317.519 603.64C317.519 602.734 318.253 602 319.159 602C320.065 602 320.799 602.734 320.799 603.64C320.799 604.546 320.065 605.28 319.159 605.28C318.253 605.28 317.519 604.546 317.519 603.64Z" fill="#024547"/>
<path fill-rule="evenodd" clip-rule="evenodd" d="M108 626.92C108 626.014 108.734 625.28 109.64 625.28C110.546 625.28 111.28 626.014 111.28 626.92C111.28 627.826 110.546 628.56 109.64 628.56C108.734 628.56 108 627.826 108 626.92Z" fill="#024547"/>
<path fill-rule="evenodd" clip-rule="evenodd" d="M131.279 626.92C131.279 626.014 132.013 625.28 132.919 625.28C133.824 625.28 134.559 626.014 134.559 626.92C134.559 627.826 133.824 628.56 132.919 628.56C132.013 628.56 131.279 627.826 131.279 626.92Z" fill="#024547"/>
<path fill-rule="evenodd" clip-rule="evenodd" d="M154.561 626.92C154.561 626.014 155.295 625.28 156.201 625.28C157.107 625.28 157.841 626.014 157.841 626.92C157.841 627.826 157.107 628.56 156.201 628.56C155.295 628.56 154.561 627.826 154.561 626.92Z" fill="#024547"/>
<path fill-rule="evenodd" clip-rule="evenodd" d="M177.84 626.92C177.84 626.014 178.574 625.28 179.48 625.28C180.385 625.28 181.12 626.014 181.12 626.92C181.12 627.826 180.385 628.56 179.48 628.56C178.574 628.56 177.84 627.826 177.84 626.92Z" fill="#024547"/>
<path fill-rule="evenodd" clip-rule="evenodd" d="M201.118 626.92C201.118 626.014 201.853 625.28 202.758 625.28C203.664 625.28 204.398 626.014 204.398 626.92C204.398 627.826 203.664 628.56 202.758 628.56C201.853 628.56 201.118 627.826 201.118 626.92Z" fill="#024547"/>
<path fill-rule="evenodd" clip-rule="evenodd" d="M224.401 626.92C224.401 626.014 225.135 625.28 226.041 625.28C226.947 625.28 227.681 626.014 227.681 626.92C227.681 627.826 226.947 628.56 226.041 628.56C225.135 628.56 224.401 627.826 224.401 626.92Z" fill="#024547"/>
<path fill-rule="evenodd" clip-rule="evenodd" d="M247.679 626.92C247.679 626.014 248.414 625.28 249.319 625.28C250.225 625.28 250.959 626.014 250.959 626.92C250.959 627.826 250.225 628.56 249.319 628.56C248.414 628.56 247.679 627.826 247.679 626.92Z" fill="#024547"/>
<path fill-rule="evenodd" clip-rule="evenodd" d="M270.962 626.92C270.962 626.014 271.696 625.28 272.602 625.28C273.508 625.28 274.242 626.014 274.242 626.92C274.242 627.826 273.508 628.56 272.602 628.56C271.696 628.56 270.962 627.826 270.962 626.92Z" fill="#024547"/>
<path fill-rule="evenodd" clip-rule="evenodd" d="M294.24 626.92C294.24 626.014 294.975 625.28 295.88 625.28C296.786 625.28 297.52 626.014 297.52 626.92C297.52 627.826 296.786 628.56 295.88 628.56C294.975 628.56 294.24 627.826 294.24 626.92Z" fill="#024547"/>
<path fill-rule="evenodd" clip-rule="evenodd" d="M317.519 626.92C317.519 626.014 318.253 625.28 319.159 625.28C320.065 625.28 320.799 626.014 320.799 626.92C320.799 627.826 320.065 628.56 319.159 628.56C318.253 628.56 317.519 627.826 317.519 626.92Z" fill="#024547"/>
<path fill-rule="evenodd" clip-rule="evenodd" d="M108 650.2C108 649.294 108.734 648.56 109.64 648.56C110.546 648.56 111.28 649.294 111.28 650.2C111.28 651.106 110.546 651.84 109.64 651.84C108.734 651.84 108 651.106 108 650.2Z" fill="#024547"/>
<path fill-rule="evenodd" clip-rule="evenodd" d="M131.279 650.2C131.279 649.294 132.013 648.56 132.919 648.56C133.824 648.56 134.559 649.294 134.559 650.2C134.559 651.106 133.824 651.84 132.919 651.84C132.013 651.84 131.279 651.106 131.279 650.2Z" fill="#024547"/>
<path fill-rule="evenodd" clip-rule="evenodd" d="M154.561 650.2C154.561 649.294 155.295 648.56 156.201 648.56C157.107 648.56 157.841 649.294 157.841 650.2C157.841 651.106 157.107 651.84 156.201 651.84C155.295 651.84 154.561 651.106 154.561 650.2Z" fill="#024547"/>
<path fill-rule="evenodd" clip-rule="evenodd" d="M177.84 650.2C177.84 649.294 178.574 648.56 179.48 648.56C180.385 648.56 181.12 649.294 181.12 650.2C181.12 651.106 180.385 651.84 179.48 651.84C178.574 651.84 177.84 651.106 177.84 650.2Z" fill="#024547"/>
<path fill-rule="evenodd" clip-rule="evenodd" d="M201.118 650.2C201.118 649.294 201.853 648.56 202.758 648.56C203.664 648.56 204.398 649.294 204.398 650.2C204.398 651.106 203.664 651.84 202.758 651.84C201.853 651.84 201.118 651.106 201.118 650.2Z" fill="#024547"/>
<path fill-rule="evenodd" clip-rule="evenodd" d="M224.401 650.2C224.401 649.294 225.135 648.56 226.041 648.56C226.947 648.56 227.681 649.294 227.681 650.2C227.681 651.106 226.947 651.84 226.041 651.84C225.135 651.84 224.401 651.106 224.401 650.2Z" fill="#024547"/>
<path fill-rule="evenodd" clip-rule="evenodd" d="M247.679 650.2C247.679 649.294 248.414 648.56 249.319 648.56C250.225 648.56 250.959 649.294 250.959 650.2C250.959 651.106 250.225 651.84 249.319 651.84C248.414 651.84 247.679 651.106 247.679 650.2Z" fill="#024547"/>
<path fill-rule="evenodd" clip-rule="evenodd" d="M270.962 650.2C270.962 649.294 271.696 648.56 272.602 648.56C273.508 648.56 274.242 649.294 274.242 650.2C274.242 651.106 273.508 651.84 272.602 651.84C271.696 651.84 270.962 651.106 270.962 650.2Z" fill="#024547"/>
<path fill-rule="evenodd" clip-rule="evenodd" d="M294.24 650.2C294.24 649.294 294.975 648.56 295.88 648.56C296.786 648.56 297.52 649.294 297.52 650.2C297.52 651.106 296.786 651.84 295.88 651.84C294.975 651.84 294.24 651.106 294.24 650.2Z" fill="#024547"/>
<path fill-rule="evenodd" clip-rule="evenodd" d="M317.519 650.2C317.519 649.294 318.253 648.56 319.159 648.56C320.065 648.56 320.799 649.294 320.799 650.2C320.799 651.106 320.065 651.84 319.159 651.84C318.253 651.84 317.519 651.106 317.519 650.2Z" fill="#024547"/>
<path fill-rule="evenodd" clip-rule="evenodd" d="M108 673.48C108 672.574 108.734 671.84 109.64 671.84C110.546 671.84 111.28 672.574 111.28 673.48C111.28 674.386 110.546 675.12 109.64 675.12C108.734 675.12 108 674.386 108 673.48Z" fill="#024547"/>
<path fill-rule="evenodd" clip-rule="evenodd" d="M131.279 673.48C131.279 672.574 132.013 671.84 132.919 671.84C133.824 671.84 134.559 672.574 134.559 673.48C134.559 674.386 133.824 675.12 132.919 675.12C132.013 675.12 131.279 674.386 131.279 673.48Z" fill="#024547"/>
<path fill-rule="evenodd" clip-rule="evenodd" d="M154.561 673.48C154.561 672.574 155.295 671.84 156.201 671.84C157.107 671.84 157.841 672.574 157.841 673.48C157.841 674.386 157.107 675.12 156.201 675.12C155.295 675.12 154.561 674.386 154.561 673.48Z" fill="#024547"/>
<path fill-rule="evenodd" clip-rule="evenodd" d="M177.84 673.48C177.84 672.574 178.574 671.84 179.48 671.84C180.385 671.84 181.12 672.574 181.12 673.48C181.12 674.386 180.385 675.12 179.48 675.12C178.574 675.12 177.84 674.386 177.84 673.48Z" fill="#024547"/>
<path fill-rule="evenodd" clip-rule="evenodd" d="M201.118 673.48C201.118 672.574 201.853 671.84 202.758 671.84C203.664 671.84 204.398 672.574 204.398 673.48C204.398 674.386 203.664 675.12 202.758 675.12C201.853 675.12 201.118 674.386 201.118 673.48Z" fill="#024547"/>
<path fill-rule="evenodd" clip-rule="evenodd" d="M224.401 673.48C224.401 672.574 225.135 671.84 226.041 671.84C226.947 671.84 227.681 672.574 227.681 673.48C227.681 674.386 226.947 675.12 226.041 675.12C225.135 675.12 224.401 674.386 224.401 673.48Z" fill="#024547"/>
<path fill-rule="evenodd" clip-rule="evenodd" d="M247.679 673.48C247.679 672.574 248.414 671.84 249.319 671.84C250.225 671.84 250.959 672.574 250.959 673.48C250.959 674.386 250.225 675.12 249.319 675.12C248.414 675.12 247.679 674.386 247.679 673.48Z" fill="#024547"/>
<path fill-rule="evenodd" clip-rule="evenodd" d="M270.962 673.48C270.962 672.574 271.696 671.84 272.602 671.84C273.508 671.84 274.242 672.574 274.242 673.48C274.242 674.386 273.508 675.12 272.602 675.12C271.696 675.12 270.962 674.386 270.962 673.48Z" fill="#024547"/>
<path fill-rule="evenodd" clip-rule="evenodd" d="M294.24 673.48C294.24 672.574 294.975 671.84 295.88 671.84C296.786 671.84 297.52 672.574 297.52 673.48C297.52 674.386 296.786 675.12 295.88 675.12C294.975 675.12 294.24 674.386 294.24 673.48Z" fill="#024547"/>
<path fill-rule="evenodd" clip-rule="evenodd" d="M317.519 673.48C317.519 672.574 318.253 671.84 319.159 671.84C320.065 671.84 320.799 672.574 320.799 673.48C320.799 674.386 320.065 675.12 319.159 675.12C318.253 675.12 317.519 674.386 317.519 673.48Z" fill="#024547"/>
<path fill-rule="evenodd" clip-rule="evenodd" d="M108 696.76C108 695.854 108.734 695.12 109.64 695.12C110.546 695.12 111.28 695.854 111.28 696.76C111.28 697.666 110.546 698.4 109.64 698.4C108.734 698.4 108 697.666 108 696.76Z" fill="#024547"/>
<path fill-rule="evenodd" clip-rule="evenodd" d="M131.279 696.76C131.279 695.854 132.013 695.12 132.919 695.12C133.824 695.12 134.559 695.854 134.559 696.76C134.559 697.666 133.824 698.4 132.919 698.4C132.013 698.4 131.279 697.666 131.279 696.76Z" fill="#024547"/>
<path fill-rule="evenodd" clip-rule="evenodd" d="M154.561 696.76C154.561 695.854 155.295 695.12 156.201 695.12C157.107 695.12 157.841 695.854 157.841 696.76C157.841 697.666 157.107 698.4 156.201 698.4C155.295 698.4 154.561 697.666 154.561 696.76Z" fill="#024547"/>
<path fill-rule="evenodd" clip-rule="evenodd" d="M177.84 696.76C177.84 695.854 178.574 695.12 179.48 695.12C180.385 695.12 181.12 695.854 181.12 696.76C181.12 697.666 180.385 698.4 179.48 698.4C178.574 698.4 177.84 697.666 177.84 696.76Z" fill="#024547"/>
<path fill-rule="evenodd" clip-rule="evenodd" d="M201.118 696.76C201.118 695.854 201.853 695.12 202.758 695.12C203.664 695.12 204.398 695.854 204.398 696.76C204.398 697.666 203.664 698.4 202.758 698.4C201.853 698.4 201.118 697.666 201.118 696.76Z" fill="#024547"/>
<path fill-rule="evenodd" clip-rule="evenodd" d="M224.401 696.76C224.401 695.854 225.135 695.12 226.041 695.12C226.947 695.12 227.681 695.854 227.681 696.76C227.681 697.666 226.947 698.4 226.041 698.4C225.135 698.4 224.401 697.666 224.401 696.76Z" fill="#024547"/>
<path fill-rule="evenodd" clip-rule="evenodd" d="M247.679 696.76C247.679 695.854 248.414 695.12 249.319 695.12C250.225 695.12 250.959 695.854 250.959 696.76C250.959 697.666 250.225 698.4 249.319 698.4C248.414 698.4 247.679 697.666 247.679 696.76Z" fill="#024547"/>
<path fill-rule="evenodd" clip-rule="evenodd" d="M270.962 696.76C270.962 695.854 271.696 695.12 272.602 695.12C273.508 695.12 274.242 695.854 274.242 696.76C274.242 697.666 273.508 698.4 272.602 698.4C271.696 698.4 270.962 697.666 270.962 696.76Z" fill="#024547"/>
<path fill-rule="evenodd" clip-rule="evenodd" d="M294.24 696.76C294.24 695.854 294.975 695.12 295.88 695.12C296.786 695.12 297.52 695.854 297.52 696.76C297.52 697.666 296.786 698.4 295.88 698.4C294.975 698.4 294.24 697.666 294.24 696.76Z" fill="#024547"/>
<path fill-rule="evenodd" clip-rule="evenodd" d="M317.519 696.76C317.519 695.854 318.253 695.12 319.159 695.12C320.065 695.12 320.799 695.854 320.799 696.76C320.799 697.666 320.065 698.4 319.159 698.4C318.253 698.4 317.519 697.666 317.519 696.76Z" fill="#024547"/>
</svg>
