<svg width="1366" height="648" viewBox="0 0 1366 648" fill="none" xmlns="http://www.w3.org/2000/svg">
<path fill-rule="evenodd" clip-rule="evenodd" d="M-487.944 812.149C-517.976 798.144 -530.97 762.445 -516.965 732.413L-200.847 54.4948C-186.843 24.4624 -151.144 11.4691 -121.111 25.4735L587.621 355.961C617.654 369.965 630.647 405.664 616.643 435.697L300.524 1113.61C286.52 1143.65 250.821 1156.64 220.789 1142.64L-487.944 812.149Z" fill="#009846"/>
<path fill-rule="evenodd" clip-rule="evenodd" d="M1234 113.94C1234 113.034 1234.73 112.3 1235.64 112.3C1236.55 112.3 1237.28 113.034 1237.28 113.94C1237.28 114.846 1236.55 115.58 1235.64 115.58C1234.73 115.58 1234 114.846 1234 113.94Z" fill="#024547"/>
<path fill-rule="evenodd" clip-rule="evenodd" d="M1257.28 113.94C1257.28 113.034 1258.01 112.3 1258.92 112.3C1259.82 112.3 1260.56 113.034 1260.56 113.94C1260.56 114.846 1259.82 115.58 1258.92 115.58C1258.01 115.58 1257.28 114.846 1257.28 113.94Z" fill="#024547"/>
<path fill-rule="evenodd" clip-rule="evenodd" d="M1280.56 113.94C1280.56 113.034 1281.3 112.3 1282.2 112.3C1283.11 112.3 1283.84 113.034 1283.84 113.94C1283.84 114.846 1283.11 115.58 1282.2 115.58C1281.3 115.58 1280.56 114.846 1280.56 113.94Z" fill="#024547"/>
<path fill-rule="evenodd" clip-rule="evenodd" d="M1303.84 113.94C1303.84 113.034 1304.57 112.3 1305.48 112.3C1306.39 112.3 1307.12 113.034 1307.12 113.94C1307.12 114.846 1306.39 115.58 1305.48 115.58C1304.57 115.58 1303.84 114.846 1303.84 113.94Z" fill="#024547"/>
<path fill-rule="evenodd" clip-rule="evenodd" d="M1327.12 113.94C1327.12 113.034 1327.85 112.3 1328.76 112.3C1329.66 112.3 1330.4 113.034 1330.4 113.94C1330.4 114.846 1329.66 115.58 1328.76 115.58C1327.85 115.58 1327.12 114.846 1327.12 113.94Z" fill="#024547"/>
<path fill-rule="evenodd" clip-rule="evenodd" d="M1350.4 113.94C1350.4 113.034 1351.14 112.3 1352.04 112.3C1352.95 112.3 1353.68 113.034 1353.68 113.94C1353.68 114.846 1352.95 115.58 1352.04 115.58C1351.14 115.58 1350.4 114.846 1350.4 113.94Z" fill="#024547"/>
<path fill-rule="evenodd" clip-rule="evenodd" d="M1234 137.22C1234 136.314 1234.73 135.58 1235.64 135.58C1236.55 135.58 1237.28 136.314 1237.28 137.22C1237.28 138.126 1236.55 138.86 1235.64 138.86C1234.73 138.86 1234 138.126 1234 137.22Z" fill="#024547"/>
<path fill-rule="evenodd" clip-rule="evenodd" d="M1257.28 137.22C1257.28 136.314 1258.01 135.58 1258.92 135.58C1259.82 135.58 1260.56 136.314 1260.56 137.22C1260.56 138.126 1259.82 138.86 1258.92 138.86C1258.01 138.86 1257.28 138.126 1257.28 137.22Z" fill="#024547"/>
<path fill-rule="evenodd" clip-rule="evenodd" d="M1280.56 137.22C1280.56 136.314 1281.3 135.58 1282.2 135.58C1283.11 135.58 1283.84 136.314 1283.84 137.22C1283.84 138.126 1283.11 138.86 1282.2 138.86C1281.3 138.86 1280.56 138.126 1280.56 137.22Z" fill="#024547"/>
<path fill-rule="evenodd" clip-rule="evenodd" d="M1303.84 137.22C1303.84 136.314 1304.57 135.58 1305.48 135.58C1306.39 135.58 1307.12 136.314 1307.12 137.22C1307.12 138.126 1306.39 138.86 1305.48 138.86C1304.57 138.86 1303.84 138.126 1303.84 137.22Z" fill="#024547"/>
<path fill-rule="evenodd" clip-rule="evenodd" d="M1327.12 137.22C1327.12 136.314 1327.85 135.58 1328.76 135.58C1329.66 135.58 1330.4 136.314 1330.4 137.22C1330.4 138.126 1329.66 138.86 1328.76 138.86C1327.85 138.86 1327.12 138.126 1327.12 137.22Z" fill="#024547"/>
<path fill-rule="evenodd" clip-rule="evenodd" d="M1350.4 137.22C1350.4 136.314 1351.14 135.58 1352.04 135.58C1352.95 135.58 1353.68 136.314 1353.68 137.22C1353.68 138.126 1352.95 138.86 1352.04 138.86C1351.14 138.86 1350.4 138.126 1350.4 137.22Z" fill="#024547"/>
<path fill-rule="evenodd" clip-rule="evenodd" d="M1234 160.5C1234 159.594 1234.73 158.86 1235.64 158.86C1236.55 158.86 1237.28 159.594 1237.28 160.5C1237.28 161.406 1236.55 162.14 1235.64 162.14C1234.73 162.14 1234 161.406 1234 160.5Z" fill="#024547"/>
<path fill-rule="evenodd" clip-rule="evenodd" d="M1257.28 160.5C1257.28 159.594 1258.01 158.86 1258.92 158.86C1259.82 158.86 1260.56 159.594 1260.56 160.5C1260.56 161.406 1259.82 162.14 1258.92 162.14C1258.01 162.14 1257.28 161.406 1257.28 160.5Z" fill="#024547"/>
<path fill-rule="evenodd" clip-rule="evenodd" d="M1280.56 160.5C1280.56 159.594 1281.3 158.86 1282.2 158.86C1283.11 158.86 1283.84 159.594 1283.84 160.5C1283.84 161.406 1283.11 162.14 1282.2 162.14C1281.3 162.14 1280.56 161.406 1280.56 160.5Z" fill="#024547"/>
<path fill-rule="evenodd" clip-rule="evenodd" d="M1303.84 160.5C1303.84 159.594 1304.57 158.86 1305.48 158.86C1306.39 158.86 1307.12 159.594 1307.12 160.5C1307.12 161.406 1306.39 162.14 1305.48 162.14C1304.57 162.14 1303.84 161.406 1303.84 160.5Z" fill="#024547"/>
<path fill-rule="evenodd" clip-rule="evenodd" d="M1327.12 160.5C1327.12 159.594 1327.85 158.86 1328.76 158.86C1329.66 158.86 1330.4 159.594 1330.4 160.5C1330.4 161.406 1329.66 162.14 1328.76 162.14C1327.85 162.14 1327.12 161.406 1327.12 160.5Z" fill="#024547"/>
<path fill-rule="evenodd" clip-rule="evenodd" d="M1350.4 160.5C1350.4 159.594 1351.14 158.86 1352.04 158.86C1352.95 158.86 1353.68 159.594 1353.68 160.5C1353.68 161.406 1352.95 162.14 1352.04 162.14C1351.14 162.14 1350.4 161.406 1350.4 160.5Z" fill="#024547"/>
<path fill-rule="evenodd" clip-rule="evenodd" d="M1234 183.78C1234 182.874 1234.73 182.14 1235.64 182.14C1236.55 182.14 1237.28 182.874 1237.28 183.78C1237.28 184.686 1236.55 185.42 1235.64 185.42C1234.73 185.42 1234 184.686 1234 183.78Z" fill="#024547"/>
<path fill-rule="evenodd" clip-rule="evenodd" d="M1257.28 183.78C1257.28 182.874 1258.01 182.14 1258.92 182.14C1259.82 182.14 1260.56 182.874 1260.56 183.78C1260.56 184.686 1259.82 185.42 1258.92 185.42C1258.01 185.42 1257.28 184.686 1257.28 183.78Z" fill="#024547"/>
<path fill-rule="evenodd" clip-rule="evenodd" d="M1280.56 183.78C1280.56 182.874 1281.3 182.14 1282.2 182.14C1283.11 182.14 1283.84 182.874 1283.84 183.78C1283.84 184.686 1283.11 185.42 1282.2 185.42C1281.3 185.42 1280.56 184.686 1280.56 183.78Z" fill="#024547"/>
<path fill-rule="evenodd" clip-rule="evenodd" d="M1303.84 183.78C1303.84 182.874 1304.57 182.14 1305.48 182.14C1306.39 182.14 1307.12 182.874 1307.12 183.78C1307.12 184.686 1306.39 185.42 1305.48 185.42C1304.57 185.42 1303.84 184.686 1303.84 183.78Z" fill="#024547"/>
<path fill-rule="evenodd" clip-rule="evenodd" d="M1327.12 183.78C1327.12 182.874 1327.85 182.14 1328.76 182.14C1329.66 182.14 1330.4 182.874 1330.4 183.78C1330.4 184.686 1329.66 185.42 1328.76 185.42C1327.85 185.42 1327.12 184.686 1327.12 183.78Z" fill="#024547"/>
<path fill-rule="evenodd" clip-rule="evenodd" d="M1350.4 183.78C1350.4 182.874 1351.14 182.14 1352.04 182.14C1352.95 182.14 1353.68 182.874 1353.68 183.78C1353.68 184.686 1352.95 185.42 1352.04 185.42C1351.14 185.42 1350.4 184.686 1350.4 183.78Z" fill="#024547"/>
<path fill-rule="evenodd" clip-rule="evenodd" d="M1234 207.06C1234 206.154 1234.73 205.42 1235.64 205.42C1236.55 205.42 1237.28 206.154 1237.28 207.06C1237.28 207.966 1236.55 208.7 1235.64 208.7C1234.73 208.7 1234 207.966 1234 207.06Z" fill="#024547"/>
<path fill-rule="evenodd" clip-rule="evenodd" d="M1257.28 207.06C1257.28 206.154 1258.01 205.42 1258.92 205.42C1259.82 205.42 1260.56 206.154 1260.56 207.06C1260.56 207.966 1259.82 208.7 1258.92 208.7C1258.01 208.7 1257.28 207.966 1257.28 207.06Z" fill="#024547"/>
<path fill-rule="evenodd" clip-rule="evenodd" d="M1280.56 207.06C1280.56 206.154 1281.3 205.42 1282.2 205.42C1283.11 205.42 1283.84 206.154 1283.84 207.06C1283.84 207.966 1283.11 208.7 1282.2 208.7C1281.3 208.7 1280.56 207.966 1280.56 207.06Z" fill="#024547"/>
<path fill-rule="evenodd" clip-rule="evenodd" d="M1303.84 207.06C1303.84 206.154 1304.57 205.42 1305.48 205.42C1306.39 205.42 1307.12 206.154 1307.12 207.06C1307.12 207.966 1306.39 208.7 1305.48 208.7C1304.57 208.7 1303.84 207.966 1303.84 207.06Z" fill="#024547"/>
<path fill-rule="evenodd" clip-rule="evenodd" d="M1327.12 207.06C1327.12 206.154 1327.85 205.42 1328.76 205.42C1329.66 205.42 1330.4 206.154 1330.4 207.06C1330.4 207.966 1329.66 208.7 1328.76 208.7C1327.85 208.7 1327.12 207.966 1327.12 207.06Z" fill="#024547"/>
<path fill-rule="evenodd" clip-rule="evenodd" d="M1350.4 207.06C1350.4 206.154 1351.14 205.42 1352.04 205.42C1352.95 205.42 1353.68 206.154 1353.68 207.06C1353.68 207.966 1352.95 208.7 1352.04 208.7C1351.14 208.7 1350.4 207.966 1350.4 207.06Z" fill="#024547"/>
<path fill-rule="evenodd" clip-rule="evenodd" d="M122.6 582.44C122.6 581.534 123.334 580.8 124.24 580.8C125.146 580.8 125.88 581.534 125.88 582.44C125.88 583.346 125.146 584.08 124.24 584.08C123.334 584.08 122.6 583.346 122.6 582.44Z" fill="white"/>
<path fill-rule="evenodd" clip-rule="evenodd" d="M145.879 582.44C145.879 581.534 146.613 580.8 147.519 580.8C148.425 580.8 149.159 581.534 149.159 582.44C149.159 583.346 148.425 584.08 147.519 584.08C146.613 584.08 145.879 583.346 145.879 582.44Z" fill="white"/>
<path fill-rule="evenodd" clip-rule="evenodd" d="M169.161 582.44C169.161 581.534 169.896 580.8 170.801 580.8C171.707 580.8 172.441 581.534 172.441 582.44C172.441 583.346 171.707 584.08 170.801 584.08C169.896 584.08 169.161 583.346 169.161 582.44Z" fill="white"/>
<path fill-rule="evenodd" clip-rule="evenodd" d="M192.44 582.44C192.44 581.534 193.174 580.8 194.08 580.8C194.986 580.8 195.72 581.534 195.72 582.44C195.72 583.346 194.986 584.08 194.08 584.08C193.174 584.08 192.44 583.346 192.44 582.44Z" fill="white"/>
<path fill-rule="evenodd" clip-rule="evenodd" d="M215.718 582.44C215.718 581.534 216.453 580.8 217.358 580.8C218.264 580.8 218.998 581.534 218.998 582.44C218.998 583.346 218.264 584.08 217.358 584.08C216.453 584.08 215.718 583.346 215.718 582.44Z" fill="white"/>
<path fill-rule="evenodd" clip-rule="evenodd" d="M239.001 582.44C239.001 581.534 239.735 580.8 240.641 580.8C241.547 580.8 242.281 581.534 242.281 582.44C242.281 583.346 241.547 584.08 240.641 584.08C239.735 584.08 239.001 583.346 239.001 582.44Z" fill="white"/>
<path fill-rule="evenodd" clip-rule="evenodd" d="M262.28 582.44C262.28 581.534 263.014 580.8 263.92 580.8C264.825 580.8 265.56 581.534 265.56 582.44C265.56 583.346 264.825 584.08 263.92 584.08C263.014 584.08 262.28 583.346 262.28 582.44Z" fill="white"/>
<path fill-rule="evenodd" clip-rule="evenodd" d="M285.562 582.44C285.562 581.534 286.296 580.8 287.202 580.8C288.108 580.8 288.842 581.534 288.842 582.44C288.842 583.346 288.108 584.08 287.202 584.08C286.296 584.08 285.562 583.346 285.562 582.44Z" fill="white"/>
<path fill-rule="evenodd" clip-rule="evenodd" d="M308.841 582.44C308.841 581.534 309.575 580.8 310.481 580.8C311.386 580.8 312.121 581.534 312.121 582.44C312.121 583.346 311.386 584.08 310.481 584.08C309.575 584.08 308.841 583.346 308.841 582.44Z" fill="white"/>
<path fill-rule="evenodd" clip-rule="evenodd" d="M332.119 582.44C332.119 581.534 332.854 580.8 333.759 580.8C334.665 580.8 335.399 581.534 335.399 582.44C335.399 583.346 334.665 584.08 333.759 584.08C332.854 584.08 332.119 583.346 332.119 582.44Z" fill="white"/>
<path fill-rule="evenodd" clip-rule="evenodd" d="M122.6 605.72C122.6 604.814 123.334 604.08 124.24 604.08C125.146 604.08 125.88 604.814 125.88 605.72C125.88 606.626 125.146 607.36 124.24 607.36C123.334 607.36 122.6 606.626 122.6 605.72Z" fill="white"/>
<path fill-rule="evenodd" clip-rule="evenodd" d="M145.879 605.72C145.879 604.814 146.613 604.08 147.519 604.08C148.425 604.08 149.159 604.814 149.159 605.72C149.159 606.626 148.425 607.36 147.519 607.36C146.613 607.36 145.879 606.626 145.879 605.72Z" fill="white"/>
<path fill-rule="evenodd" clip-rule="evenodd" d="M169.161 605.72C169.161 604.814 169.896 604.08 170.801 604.08C171.707 604.08 172.441 604.814 172.441 605.72C172.441 606.626 171.707 607.36 170.801 607.36C169.896 607.36 169.161 606.626 169.161 605.72Z" fill="white"/>
<path fill-rule="evenodd" clip-rule="evenodd" d="M192.44 605.72C192.44 604.814 193.174 604.08 194.08 604.08C194.986 604.08 195.72 604.814 195.72 605.72C195.72 606.626 194.986 607.36 194.08 607.36C193.174 607.36 192.44 606.626 192.44 605.72Z" fill="white"/>
<path fill-rule="evenodd" clip-rule="evenodd" d="M215.718 605.72C215.718 604.814 216.453 604.08 217.358 604.08C218.264 604.08 218.998 604.814 218.998 605.72C218.998 606.626 218.264 607.36 217.358 607.36C216.453 607.36 215.718 606.626 215.718 605.72Z" fill="white"/>
<path fill-rule="evenodd" clip-rule="evenodd" d="M239.001 605.72C239.001 604.814 239.735 604.08 240.641 604.08C241.547 604.08 242.281 604.814 242.281 605.72C242.281 606.626 241.547 607.36 240.641 607.36C239.735 607.36 239.001 606.626 239.001 605.72Z" fill="white"/>
<path fill-rule="evenodd" clip-rule="evenodd" d="M262.28 605.72C262.28 604.814 263.014 604.08 263.92 604.08C264.825 604.08 265.56 604.814 265.56 605.72C265.56 606.626 264.825 607.36 263.92 607.36C263.014 607.36 262.28 606.626 262.28 605.72Z" fill="white"/>
<path fill-rule="evenodd" clip-rule="evenodd" d="M285.562 605.72C285.562 604.814 286.296 604.08 287.202 604.08C288.108 604.08 288.842 604.814 288.842 605.72C288.842 606.626 288.108 607.36 287.202 607.36C286.296 607.36 285.562 606.626 285.562 605.72Z" fill="white"/>
<path fill-rule="evenodd" clip-rule="evenodd" d="M308.841 605.72C308.841 604.814 309.575 604.08 310.481 604.08C311.386 604.08 312.121 604.814 312.121 605.72C312.121 606.626 311.386 607.36 310.481 607.36C309.575 607.36 308.841 606.626 308.841 605.72Z" fill="white"/>
<path fill-rule="evenodd" clip-rule="evenodd" d="M332.119 605.72C332.119 604.814 332.854 604.08 333.759 604.08C334.665 604.08 335.399 604.814 335.399 605.72C335.399 606.626 334.665 607.36 333.759 607.36C332.854 607.36 332.119 606.626 332.119 605.72Z" fill="white"/>
<path fill-rule="evenodd" clip-rule="evenodd" d="M122.6 629C122.6 628.094 123.334 627.36 124.24 627.36C125.146 627.36 125.88 628.094 125.88 629C125.88 629.906 125.146 630.64 124.24 630.64C123.334 630.64 122.6 629.906 122.6 629Z" fill="white"/>
<path fill-rule="evenodd" clip-rule="evenodd" d="M145.879 629C145.879 628.094 146.613 627.36 147.519 627.36C148.425 627.36 149.159 628.094 149.159 629C149.159 629.906 148.425 630.64 147.519 630.64C146.613 630.64 145.879 629.906 145.879 629Z" fill="white"/>
<path fill-rule="evenodd" clip-rule="evenodd" d="M169.161 629C169.161 628.094 169.896 627.36 170.801 627.36C171.707 627.36 172.441 628.094 172.441 629C172.441 629.906 171.707 630.64 170.801 630.64C169.896 630.64 169.161 629.906 169.161 629Z" fill="white"/>
<path fill-rule="evenodd" clip-rule="evenodd" d="M192.44 629C192.44 628.094 193.174 627.36 194.08 627.36C194.986 627.36 195.72 628.094 195.72 629C195.72 629.906 194.986 630.64 194.08 630.64C193.174 630.64 192.44 629.906 192.44 629Z" fill="white"/>
<path fill-rule="evenodd" clip-rule="evenodd" d="M215.718 629C215.718 628.094 216.453 627.36 217.358 627.36C218.264 627.36 218.998 628.094 218.998 629C218.998 629.906 218.264 630.64 217.358 630.64C216.453 630.64 215.718 629.906 215.718 629Z" fill="white"/>
<path fill-rule="evenodd" clip-rule="evenodd" d="M239.001 629C239.001 628.094 239.735 627.36 240.641 627.36C241.547 627.36 242.281 628.094 242.281 629C242.281 629.906 241.547 630.64 240.641 630.64C239.735 630.64 239.001 629.906 239.001 629Z" fill="white"/>
<path fill-rule="evenodd" clip-rule="evenodd" d="M262.28 629C262.28 628.094 263.014 627.36 263.92 627.36C264.825 627.36 265.56 628.094 265.56 629C265.56 629.906 264.825 630.64 263.92 630.64C263.014 630.64 262.28 629.906 262.28 629Z" fill="white"/>
<path fill-rule="evenodd" clip-rule="evenodd" d="M285.562 629C285.562 628.094 286.296 627.36 287.202 627.36C288.108 627.36 288.842 628.094 288.842 629C288.842 629.906 288.108 630.64 287.202 630.64C286.296 630.64 285.562 629.906 285.562 629Z" fill="white"/>
<path fill-rule="evenodd" clip-rule="evenodd" d="M308.841 629C308.841 628.094 309.575 627.36 310.481 627.36C311.386 627.36 312.121 628.094 312.121 629C312.121 629.906 311.386 630.64 310.481 630.64C309.575 630.64 308.841 629.906 308.841 629Z" fill="white"/>
<path fill-rule="evenodd" clip-rule="evenodd" d="M332.119 629C332.119 628.094 332.854 627.36 333.759 627.36C334.665 627.36 335.399 628.094 335.399 629C335.399 629.906 334.665 630.64 333.759 630.64C332.854 630.64 332.119 629.906 332.119 629Z" fill="white"/>
<path fill-rule="evenodd" clip-rule="evenodd" d="M1228.04 400.814C1222.33 402.892 1216.02 399.948 1213.94 394.24L1191.36 332.22C1189.29 326.511 1192.23 320.199 1197.94 318.121L1259.96 295.548C1265.67 293.47 1271.98 296.413 1274.06 302.122L1296.63 364.142C1298.71 369.851 1295.77 376.163 1290.06 378.241L1228.04 400.814Z" fill="#284694"/>
<path fill-rule="evenodd" clip-rule="evenodd" d="M598.775 277.994C593.066 280.072 586.754 277.129 584.676 271.42L572.705 238.531C570.628 232.822 573.571 226.51 579.28 224.432L612.169 212.461C617.878 210.383 624.19 213.327 626.268 219.035L638.239 251.925C640.316 257.633 637.373 263.946 631.664 266.023L598.775 277.994Z" fill="#98C1D9"/>
</svg>
